<?xml version="1.0" standalone="no"?>
<!DOCTYPE svg PUBLIC "-//W3C//DTD SVG 20010904//EN"
 "http://www.w3.org/TR/2001/REC-SVG-20010904/DTD/svg10.dtd">
<svg version="1.0" xmlns="http://www.w3.org/2000/svg"
 width="512.000000pt" height="512.000000pt" viewBox="0 0 512.000000 512.000000"
 preserveAspectRatio="xMidYMid meet">

<g transform="translate(0.000000,512.000000) scale(0.100000,-0.100000)"
fill="#ffff" stroke="none">
<path d="M2430 5114 c-206 -23 -313 -46 -465 -101 -600 -216 -1029 -741 -1126
-1378 -21 -137 -16 -354 10 -475 56 -263 238 -727 417 -1065 28 -52 1217
-2078 1229 -2092 3 -4 1324 2122 1393 2242 90 155 231 448 285 590 118 312
145 519 106 805 -102 736 -691 1332 -1439 1456 -85 14 -345 26 -410 18z m320
-704 c194 -40 354 -125 496 -265 106 -106 170 -199 224 -327 56 -135 73 -227
73 -388 -1 -112 -5 -152 -27 -235 -140 -539 -674 -857 -1211 -721 -365 93
-650 393 -727 766 -28 135 -21 337 16 463 52 175 134 313 258 438 144 145 367
256 563 282 88 12 243 6 335 -13z"/>
</g>
</svg>
