<?xml version="1.0" standalone="no"?>
<!DOCTYPE svg PUBLIC "-//W3C//DTD SVG 20010904//EN"
 "http://www.w3.org/TR/2001/REC-SVG-20010904/DTD/svg10.dtd">
<svg version="1.0" xmlns="http://www.w3.org/2000/svg"
 width="512.000000pt" height="512.000000pt" viewBox="0 0 512.000000 512.000000"
 preserveAspectRatio="xMidYMid meet">

<g transform="translate(0.000000,512.000000) scale(0.100000,-0.100000)"
fill="#ffff" stroke="none">
<path d="M2012 4765 c-559 -145 -1048 -505 -1354 -997 -66 -106 -167 -317
-208 -433 -324 -924 -21 -1948 752 -2545 299 -232 654 -382 1053 -446 152 -25
484 -25 649 -1 545 81 1051 362 1398 776 246 294 406 624 492 1013 6 25 -1 22
-104 -47 -246 -167 -510 -270 -796 -311 -144 -20 -398 -20 -535 0 -671 102
-1225 541 -1472 1166 -91 228 -129 434 -129 690 0 391 105 733 326 1060 41 60
72 110 68 110 -4 -1 -67 -16 -140 -35z"/>
<path d="M3685 4457 c-70 -168 -148 -333 -179 -380 -49 -73 -140 -157 -219
-201 -34 -18 -132 -64 -217 -101 -85 -37 -156 -68 -157 -70 -2 -1 79 -37 179
-81 326 -142 390 -206 533 -533 60 -139 81 -179 87 -165 81 190 162 362 192
407 48 72 143 159 221 201 33 18 131 64 218 102 120 52 154 70 140 76 -188 81
-361 162 -406 192 -77 51 -167 152 -210 234 -19 37 -61 128 -92 202 -32 74
-62 139 -66 144 -5 6 -15 -6 -24 -27z"/>
</g>
</svg>
