<?xml version="1.0" standalone="no"?>
<!DOCTYPE svg PUBLIC "-//W3C//DTD SVG 20010904//EN"
 "http://www.w3.org/TR/2001/REC-SVG-20010904/DTD/svg10.dtd">
<svg version="1.0" xmlns="http://www.w3.org/2000/svg"
 width="512.000000pt" height="512.000000pt" viewBox="0 0 512.000000 512.000000"
 preserveAspectRatio="xMidYMid meet">

<g transform="translate(0.000000,512.000000) scale(0.100000,-0.100000)"
fill="#fff" stroke="none">
<path d="M2512 5055 c-56 -24 -62 -55 -62 -306 0 -241 6 -275 56 -298 36 -16
86 -14 113 5 45 32 51 67 51 299 0 247 -6 276 -64 300 -43 18 -52 18 -94 0z"/>
<path d="M811 4346 c-31 -17 -50 -53 -51 -96 0 -31 15 -49 178 -212 145 -145
183 -178 205 -178 68 0 124 62 113 124 -5 24 -47 73 -179 204 -158 157 -176
172 -208 172 -19 -1 -45 -7 -58 -14z"/>
<path d="M4043 4188 c-187 -186 -200 -206 -169 -267 9 -17 30 -38 47 -47 61
-31 81 -18 267 169 149 151 172 177 172 205 0 68 -44 112 -111 112 -29 0 -53
-20 -206 -172z"/>
<path d="M2440 4239 c-398 -26 -753 -190 -1046 -483 -241 -241 -383 -503 -456
-839 -30 -140 -33 -470 -4 -622 125 -671 641 -1191 1318 -1327 163 -33 453
-33 616 0 160 32 278 73 427 147 461 230 775 639 887 1155 19 91 22 134 22
325 0 190 -3 234 -22 321 -113 521 -447 947 -917 1170 -176 84 -386 140 -560
150 -49 2 -103 6 -120 7 -16 2 -82 0 -145 -4z"/>
<path d="M110 2652 c-76 -38 -74 -155 4 -187 50 -21 451 -22 500 -1 60 25 83
88 55 150 -23 50 -57 56 -301 56 -192 0 -228 -2 -258 -18z"/>
<path d="M4494 2654 c-74 -36 -73 -153 1 -189 27 -12 75 -15 257 -15 192 0
228 2 258 18 76 38 74 155 -4 187 -52 22 -468 21 -512 -1z"/>
<path d="M1115 1250 c-11 -4 -95 -84 -187 -177 -148 -149 -168 -173 -168 -202
0 -65 42 -110 104 -111 38 0 47 7 213 172 187 186 200 206 169 267 -26 49 -83
72 -131 51z"/>
<path d="M3918 1245 c-15 -9 -35 -29 -44 -46 -31 -61 -18 -81 169 -267 166
-165 175 -172 213 -172 62 1 104 46 104 111 0 29 -20 53 -173 206 -186 188
-209 202 -269 168z"/>
<path d="M2503 668 c-46 -22 -53 -59 -53 -297 0 -257 6 -282 67 -308 33 -13
43 -14 78 -2 69 24 75 47 75 307 0 244 -6 278 -56 301 -31 14 -81 13 -111 -1z"/>
</g>
</svg>
