<?xml version="1.0" standalone="no"?>
<!DOCTYPE svg PUBLIC "-//W3C//DTD SVG 20010904//EN"
 "http://www.w3.org/TR/2001/REC-SVG-20010904/DTD/svg10.dtd">
<svg version="1.0" xmlns="http://www.w3.org/2000/svg"
 width="512.000000pt" height="512.000000pt" viewBox="0 0 512.000000 512.000000"
 preserveAspectRatio="xMidYMid meet">

<g transform="translate(0.000000,512.000000) scale(0.100000,-0.100000)"
fill="#ffff" stroke="none">
<path d="M473 5105 c-245 -66 -390 -310 -328 -548 47 -179 183 -305 366 -338
298 -53 573 223 519 521 -47 261 -308 432 -557 365z m175 -335 c67 -41 77
-133 20 -190 -55 -56 -147 -45 -188 22 -37 60 -22 124 39 165 42 28 86 29 129
3z"/>
<path d="M3365 5106 c-250 -57 -446 -240 -525 -491 l-25 -80 -5 -1375 c-5
-1284 -6 -1378 -22 -1400 -10 -14 -46 -59 -80 -101 -102 -124 -177 -285 -209
-451 -7 -35 -12 -124 -12 -198 1 -111 5 -152 26 -232 146 -555 699 -885 1248
-744 413 105 711 456 759 895 30 273 -56 541 -242 761 -30 36 -60 75 -67 87
-7 14 -11 86 -11 197 l0 176 128 0 c155 0 192 15 231 93 32 65 24 123 -26 178
-45 49 -80 59 -220 59 l-113 0 0 349 0 350 238 3 239 3 36 28 c48 37 67 75 67
135 0 54 -25 100 -73 136 -27 20 -43 21 -268 24 l-239 3 0 350 0 349 328 0
c325 0 329 0 373 23 114 60 117 224 6 285 -28 15 -74 18 -376 22 l-344 5 -13
55 c-58 231 -257 432 -490 495 -82 23 -245 28 -319 11z m209 -1520 c18 -8 46
-31 62 -52 l29 -37 5 -1047 c5 -947 7 -1048 21 -1071 9 -14 46 -54 81 -89 83
-84 111 -150 111 -265 -1 -174 -102 -315 -262 -365 -251 -79 -493 100 -494
365 -1 116 26 177 119 275 40 42 78 89 84 104 7 18 10 361 10 1047 0 981 1
1021 19 1057 22 43 46 67 81 81 36 14 96 13 134 -3z"/>
<path d="M1621 4719 c-76 -13 -183 -52 -249 -91 -31 -18 -93 -69 -138 -113
-64 -64 -89 -98 -126 -172 -75 -150 -80 -184 -76 -594 l3 -354 29 -84 c100
-285 372 -481 671 -481 114 0 206 23 315 76 118 59 240 172 261 242 33 113
-77 229 -194 203 -42 -10 -53 -17 -119 -83 -165 -162 -444 -135 -575 56 -61
89 -64 117 -61 478 l3 323 28 57 c37 75 128 159 204 189 42 16 80 22 138 22
111 1 174 -26 266 -109 98 -91 143 -103 223 -64 72 35 107 113 86 192 -14 52
-124 164 -212 216 -139 82 -320 117 -477 91z"/>
</g>
</svg>
